<svg class="location-svg" width="14" height="16" viewBox="0 0 14 16" xmlns="http://www.w3.org/2000/svg" xmlns:xlink="http://www.w3.org/1999/xlink"><defs><path id="a" d="M6 14.786l-.357.35L6 15.5l.357-.364-.357-.35zm4.24-4.322l.356.35-.357-.35zm0-8.673l.356-.35-.357.35zm-8.48 0l-.356-.35.357.35zm0 8.674l.358-.35-.357.35zm4.597 4.672l4.24-4.322-.715-.7-4.24 4.322.715.7zm4.24-4.322c2.538-2.588 2.538-6.785 0-9.373l-.715.7c2.157 2.2 2.157 5.774 0 7.974l.714.7zm0-9.373a6.412 6.412 0 0 0-9.193 0l.714.7a5.412 5.412 0 0 1 7.764 0l.714-.7zm-9.193 0c-2.54 2.59-2.54 6.786 0 9.374l.714-.7c-2.157-2.2-2.157-5.773 0-7.973l-.714-.7zm0 9.374l4.24 4.322.713-.7-4.24-4.322-.713.7z"/><path id="b" d="M2 4.5A2.5 2.5 0 0 0 4.5 2h-1A1.5 1.5 0 0 1 2 3.5v1zM4.5 2A2.5 2.5 0 0 0 2-.5v1A1.5 1.5 0 0 1 3.5 2h1zM2-.5A2.5 2.5 0 0 0-.5 2h1A1.5 1.5 0 0 1 2 .5v-1zM-.5 2A2.5 2.5 0 0 0 2 4.5v-1A1.5 1.5 0 0 1 .5 2h-1z"/></defs><use class="location-svg__item" xlink:href="#a" transform="translate(1 .5)" fill="#57AD56"/><use class="location-svg__item" xlink:href="#b" transform="translate(5 4.5)" fill="#57AD56"/></svg>